<svg xmlns="http://www.w3.org/2000/svg" width="15" height="15" viewBox="0 0 15 15" fill="none">
  <path d="M7.5 13.125C1.875 13.125 0 7.5 0 7.5C0 7.5 1.875 1.875 7.5 1.875C13.125 1.875 15 7.5 15 7.5C15 7.5 13.125 13.125 7.5 13.125ZM7.5 3.75C6.75832 3.75 6.0333 3.96994 5.41662 4.382C4.79993 4.79406 4.31929 5.37969 4.03546 6.06491C3.75163 6.75013 3.67736 7.50413 3.82205 8.23156C3.96675 8.95899 4.3239 9.62721 4.84835 10.1517C5.37279 10.6761 6.04098 11.0333 6.76841 11.178C7.49584 11.3227 8.24984 11.2484 8.93506 10.9645C9.62028 10.6807 10.206 10.2001 10.618 9.5834C11.0301 8.96671 11.25 8.24168 11.25 7.5C11.25 6.50544 10.8549 5.55161 10.1517 4.84835C9.44839 4.14509 8.49456 3.75 7.5 3.75ZM7.5 9.375C7.00272 9.375 6.5258 9.17743 6.17417 8.8258C5.82254 8.47417 5.625 7.99728 5.625 7.5C5.625 7.46812 5.63249 7.43909 5.63437 7.40627C5.78104 7.46344 5.9364 7.49513 6.09375 7.5C6.46671 7.5 6.82439 7.35185 7.08811 7.08813C7.35184 6.8244 7.5 6.46671 7.5 6.09375C7.49514 5.9364 7.46343 5.78105 7.40624 5.63438C7.43812 5.63438 7.46719 5.625 7.5 5.625C7.99728 5.625 8.4742 5.82257 8.82583 6.1742C9.17746 6.52583 9.375 7.00272 9.375 7.5C9.375 7.99728 9.17746 8.47417 8.82583 8.8258C8.4742 9.17743 7.99728 9.375 7.5 9.375Z" fill="currentColor"></path>
</svg>
