<svg xmlns="http://www.w3.org/2000/svg" width="15" height="15" viewBox="0 0 15 15" fill="none">
  <path d="M0 7.49997C0 7.49997 1.875 1.87497 7.5 1.87497C8.49857 1.87497 9.37895 2.05224 10.1517 2.34384C10.7961 2.58702 11.3656 2.90972 11.8663 3.27543C12.4489 3.70102 12.9384 4.18485 13.3443 4.6694C14.5272 6.08165 15 7.49997 15 7.49997C15 7.49997 13.125 13.125 7.5 13.125C6.60036 13.125 5.79665 12.9811 5.08118 12.7393L6.66474 11.1558C6.69916 11.1636 6.73371 11.171 6.76841 11.1779C7.49584 11.3226 8.24984 11.2483 8.93506 10.9645C9.62028 10.6807 10.206 10.2001 10.618 9.58337C11.0301 8.96668 11.25 8.24165 11.25 7.49997C11.25 7.27197 11.2292 7.04611 11.1888 6.82492L13.3443 4.6694C12.9384 4.18485 12.4489 3.70102 11.8663 3.27543C11.3656 2.90972 10.7961 2.58702 10.1517 2.34384L8.65337 3.93174C8.28413 3.81238 7.89528 3.74997 7.5 3.74997C6.75832 3.74997 6.0333 3.96991 5.41662 4.38197C4.79993 4.79402 4.31929 5.37966 4.03546 6.06488C3.75163 6.7501 3.67736 7.5041 3.82205 8.23153L1.61608 10.2829C0.4622 8.88657 0 7.49997 0 7.49997Z" fill="currentColor"></path><path fill-rule="evenodd" clip-rule="evenodd" d="M14.7071 0.292893C15.0976 0.683417 15.0976 1.31658 14.7071 1.70711L1.70711 14.7071C1.31658 15.0976 0.683417 15.0976 0.292893 14.7071C-0.0976311 14.3166 -0.0976311 13.6834 0.292893 13.2929L13.2929 0.292893C13.6834 -0.0976311 14.3166 -0.0976311 14.7071 0.292893Z" fill="currentColor"></path>
</svg>
